# ASF file generated by Tido's ASF writer for MATLAB.
:version 1.10
:name VICON
:units
  mass 1
  length 0.45000000000000001
  angle deg
:documentation
   .ast/.asf automatically generated from VICON data using
   VICON BodyBuilder and BodyLanguage model FoxedUp or BRILLIANT.MOD
:root
  axis xyz
  order tx ty tz rx ry rz 
  position 0 0 0
  orientation 0 0 0
:bonedata
  begin
    id 1
    name lhipjoint
    direction 0.44017800000000001 -0.82263900000000001 0.359871
    length 1.1390085000000001
    axis 0 0 0 xyz
  end
  begin
    id 2
    name lfemur
    direction 0.34201999999999999 -0.939693 0
    length 3.5465939999999998
    axis 0 0 20 xyz
    dof rx ry rz 
    limits (-160 20)
           (-70 70)
           (-60 70)
  end
  begin
    id 3
    name ltibia
    direction 0.34201999999999999 -0.939693 0
    length 3.7970234999999999
    axis 0 0 20 xyz
    dof rx 
    limits (-10 170)
  end
  begin
    id 4
    name lfoot
    direction 0.088635099999999994 -0.24352299999999999 0.96583699999999995
    length 1.1853629999999999
    axis -90 7.62852e-016 20 xyz
    dof rx rz 
    limits (-45 90)
           (-70 20)
  end
  begin
    id 5
    name ltoes
    direction 1.53703e-011 -4.2171700000000001e-011 1
    length 0.59142150000000004
    axis -90 7.62852e-016 20 xyz
    dof rx 
    limits (-90 20)
  end
  begin
    id 6
    name rhipjoint
    direction -0.399779 -0.83977299999999999 0.367367
    length 1.115766
    axis 0 0 0 xyz
  end
  begin
    id 7
    name rfemur
    direction -0.34201999999999999 -0.939693 0
    length 3.4866269999999999
    axis 0 0 -20 xyz
    dof rx ry rz 
    limits (-160 20)
           (-70 70)
           (-70 60)
  end
  begin
    id 8
    name rtibia
    direction -0.34201999999999999 -0.939693 0
    length 3.9349440000000002
    axis 0 0 -20 xyz
    dof rx 
    limits (-10 170)
  end
  begin
    id 9
    name rfoot
    direction -0.108514 -0.29813899999999999 0.94833400000000001
    length 1.1974590000000001
    axis -90 -7.62852e-016 -20 xyz
    dof rx rz 
    limits (-45 90)
           (-20 70)
  end
  begin
    id 10
    name rtoes
    direction -1.5339199999999999e-011 -4.2207699999999999e-011 1
    length 0.59392350000000005
    axis -90 -7.62852e-016 -20 xyz
    dof rx 
    limits (-90 20)
  end
  begin
    id 11
    name lowerback
    direction 0.011325699999999999 0.99986600000000003 0.0118602
    length 1.164123
    axis 0 0 0 xyz
    dof rx ry rz 
    limits (-20 45)
           (-30 30)
           (-30 30)
  end
  begin
    id 12
    name upperback
    direction -0.016474699999999998 0.99519299999999999 -0.096537499999999998
    length 1.135656
    axis 0 0 0 xyz
    dof rx ry rz 
    limits (-20 45)
           (-30 30)
           (-30 30)
  end
  begin
    id 13
    name thorax
    direction -0.019430099999999999 0.99433000000000005 -0.10455200000000001
    length 1.1524455
    axis 0 0 0 xyz
    dof rx ry rz 
    limits (-20 45)
           (-30 30)
           (-30 30)
  end
  begin
    id 14
    name lowerneck
    direction 0.014854300000000001 0.995587 -0.092657000000000003
    length 0.772119
    axis 0 0 0 xyz
    dof rx ry rz 
    limits (-20 45)
           (-30 30)
           (-30 30)
  end
  begin
    id 15
    name upperneck
    direction -0.0135467 0.99365599999999998 -0.111639
    length 0.76021650000000007
    axis 0 0 0 xyz
    dof rx ry rz 
    limits (-20 45)
           (-30 30)
           (-30 30)
  end
  begin
    id 16
    name head
    direction -0.0061534900000000002 0.99954699999999996 -0.029447999999999998
    length 0.78578999999999999
    axis 0 0 0 xyz
    dof rx ry rz 
    limits (-20 45)
           (-30 30)
           (-30 30)
  end
  begin
    id 17
    name lclavicle
    direction 0.98826700000000001 0.14988499999999999 0.029371299999999999
    length 2.012499
    axis 0 0 0 xyz
    dof ry rz 
    limits (-20 10)
           (0 20)
  end
  begin
    id 18
    name lhumerus
    direction 1 -4.4898600000000001e-011 -1.1483300000000001e-027
    length 2.4171659999999999
    axis 180 -30 -90 xyz
    dof rx ry rz 
    limits (-60 90)
           (-90 90)
           (-90 90)
  end
  begin
    id 19
    name lradius
    direction 0.99999800000000005 0.00170963 -0.00098705499999999992
    length 1.773954
    axis 180 -30 -90 xyz
    dof rx 
    limits (-10 170)
  end
  begin
    id 20
    name lwrist
    direction 0.99999800000000005 7.53149e-005 -0.00194706
    length 0.88697700000000002
    axis 4.6505600000000004e-015 90 90 xyz
    dof ry 
    limits (-180 0)
  end
  begin
    id 21
    name lhand
    direction 1 -4.48973e-011 -1.3174599999999999e-026
    length 0.5306265
    axis 8.4064999999999996e-015 90 90 xyz
    dof rx rz 
    limits (-90 90)
           (-45 45)
  end
  begin
    id 22
    name lfingers
    direction 1 -4.49107e-011 -2.6349199999999999e-026
    length 0.42780555000000003
    axis 1.6812999999999999e-014 90 90 xyz
    dof rx 
    limits (0 90)
  end
  begin
    id 23
    name lthumb
    direction 0.70710700000000004 -6.3504800000000005e-011 0.70710700000000004
    length 0.6142455
    axis -90 45 2.8529899999999998e-015 xyz
    dof rx rz 
    limits (-45 45)
           (-45 45)
  end
  begin
    id 24
    name rclavicle
    direction -0.996699 0.064289499999999999 -0.049572499999999999
    length 2.0817494999999999
    axis 0 0 0 xyz
    dof ry rz 
    limits (-10 20)
           (-20 0)
  end
  begin
    id 25
    name rhumerus
    direction -1 -4.4891899999999998e-011 -2.4105900000000001e-027
    length 2.474145
    axis 180 30 90 xyz
    dof rx ry rz 
    limits (-90 60)
           (-90 90)
           (-90 90)
  end
  begin
    id 26
    name rradius
    direction -0.99999899999999997 0.0011810099999999999 -0.00068185800000000003
    length 1.5677145000000001
    axis 180 30 90 xyz
    dof rx 
    limits (-10 170)
  end
  begin
    id 27
    name rwrist
    direction -0.99999899999999997 0.000321823 -0.00132288
    length 0.78385499999999997
    axis 4.6505600000000004e-015 -90 -90 xyz
    dof ry 
    limits (-180 0)
  end
  begin
    id 28
    name rhand
    direction -1 -4.4902199999999998e-011 -1.3174599999999999e-026
    length 0.60719400000000001
    axis 8.4064999999999996e-015 -90 -90 xyz
    dof rx rz 
    limits (-90 90)
           (-45 45)
  end
  begin
    id 29
    name rfingers
    direction -1 -4.4917800000000002e-011 -2.6349199999999999e-026
    length 0.48953249999999998
    axis 1.6812999999999999e-014 -90 -90 xyz
    dof rx 
    limits (0 90)
  end
  begin
    id 30
    name rthumb
    direction -0.70710700000000004 -6.3471300000000002e-011 0.70710700000000004
    length 0.70287750000000004
    axis -90 -45 -2.8529899999999998e-015 xyz
    dof rx rz 
    limits (-45 45)
           (-45 45)
  end
:hierarchy
begin
  root lhipjoint rhipjoint lowerback 
  lhipjoint lfemur 
  lfemur ltibia 
  ltibia lfoot 
  lfoot ltoes 
  rhipjoint rfemur 
  rfemur rtibia 
  rtibia rfoot 
  rfoot rtoes 
  lowerback upperback 
  upperback thorax 
  thorax lowerneck lclavicle rclavicle 
  lowerneck upperneck 
  upperneck head 
  lclavicle lhumerus 
  lhumerus lradius 
  lradius lwrist 
  lwrist lhand lthumb 
  lhand lfingers 
  rclavicle rhumerus 
  rhumerus rradius 
  rradius rwrist 
  rwrist rhand rthumb 
  rhand rfingers 
end

# AMC file generated by Tido's AMC writer for MATLAB on 27-Nov-2005 at 18:24:20
# Corresponding ASF file: S:\data_MoCap\MoCaDaDB\HDM\Bonn_ASF_AMC_Use IK_on\björn\bjorn.asf
# Number of frames: 542
# Sampling rate: 120
:fully-specified
:degrees
68
root -7.7504849999999994 8.3500650000000007 -6.7255200000000004 182.547 8.4927899999999994 536.10199999999998 
lfemur 12.178100000000001 10.7532 -16.770900000000001 
ltibia 14.881 
lfoot -19.750800000000002 -3.6970000000000001 
ltoes -20.976500000000001 
rfemur -43.539200000000001 -19.765599999999999 18.198499999999999 
rtibia 31.130500000000001 
rfoot -12.602600000000001 0.38043100000000002 
rtoes -14.952 
lowerback -1.60802 -4.9069000000000003 -9.92197 
upperback 8.7899899999999995 -4.6442199999999998 -4.0883900000000004 
thorax 10.938700000000001 -2.4921600000000002 0.61015399999999997 
lowerneck 7.1044400000000003 -12.3124 -2.4346299999999998 
upperneck 6.4465700000000004 -16.674299999999999 15.589399999999999 
head 2.2964099999999998 -8.0046800000000005 4.9285600000000001 
lclavicle 3.97569e-016 5.0888900000000001e-014 
lhumerus -28.6053 -3.1410300000000002 79.576800000000006 
lradius 40.211199999999998 
lwrist -15.0396 
lhand -20.906400000000001 -5.3170900000000003 
lfingers 7.1250200000000001 
lthumb 5.4647600000000001 24.592400000000001 
rclavicle 3.97569e-016 5.0888900000000001e-014 
rhumerus -30.605799999999999 -27.376799999999999 -82.280500000000004 
rradius 18.5259 
rwrist 17.681699999999999 
rhand -7.4579899999999997 10.737399999999999 
rfingers 7.1250200000000001 
rthumb 18.430299999999999 -18.409500000000001 
69
root -7.7264099999999996 8.338635 -6.7782150000000003 182.476 8.68811 535.99199999999996 
lfemur 12.8528 10.731199999999999 -16.688800000000001 
ltibia 14.5703 
lfoot -19.621400000000001 -3.67048 
ltoes -21.754999999999999 
rfemur -43.648899999999998 -20.065999999999999 18.415900000000001 
rtibia 31.261800000000001 
rfoot -12.4376 -0.00134363 
rtoes -16.666399999999999 
lowerback -1.5630900000000001 -5.1028200000000004 -9.8528500000000001 
upperback 8.74207 -4.9465300000000001 -4.0397100000000004 
thorax 10.8803 -2.6404399999999999 0.59104699999999999 
lowerneck 7.1907500000000004 -12.635999999999999 -2.5538699999999999 
upperneck 6.1682499999999996 -17.109500000000001 15.803599999999999 
head 2.2708499999999998 -8.2460799999999992 5.0035600000000002 
lclavicle -1.8685799999999999e-014 7.63333e-014 
lhumerus -28.678799999999999 -2.4531200000000002 79.365799999999993 
lradius 39.822299999999998 
lwrist -15.1333 
lhand -21.170200000000001 -5.4445300000000003 
lfingers 7.1250200000000001 
lthumb 5.2100600000000004 24.471399999999999 
rclavicle -1.8685799999999999e-014 7.63333e-014 
rhumerus -30.773199999999999 -27.926200000000001 -82.098399999999998 
rradius 18.585599999999999 
rwrist 17.988199999999999 
rhand -7.4102100000000002 10.994199999999999 
rfingers 7.1250200000000001 
rthumb 18.476299999999998 -18.148299999999999 
70
root -7.6999500000000003 8.3277000000000001 -6.831315 182.42699999999999 8.9047300000000007 535.90300000000002 
lfemur 13.526 10.779199999999999 -16.543199999999999 
ltibia 14.2356 
lfoot -19.3095 -3.7373699999999999 
ltoes -22.6432 
rfemur -43.790799999999997 -20.311499999999999 18.677099999999999 
rtibia 31.471800000000002 
rfoot -12.047700000000001 -0.42370799999999997 
rtoes -17.431899999999999 
lowerback -1.53457 -5.2834599999999998 -9.7831899999999994 
upperback 8.6957900000000006 -5.2268400000000002 -3.98265 
thorax 10.8324 -2.7790400000000002 0.58221000000000001 
lowerneck 7.2601899999999997 -12.9643 -2.6592199999999999 
upperneck 5.8823999999999996 -17.549399999999999 16.036100000000001 
head 2.2482500000000001 -8.4886999999999997 5.0801600000000002 
lclavicle -6.4008700000000004e-014 -5.0888900000000001e-014 
lhumerus -28.494199999999999 -1.6848099999999999 79.158199999999994 
lradius 39.151600000000002 
lwrist -15.3162 
lhand -21.345700000000001 -5.5342599999999997 
lfingers 7.1250200000000001 
lthumb 5.0405300000000004 24.3858 
rclavicle -6.4008700000000004e-014 -5.0888900000000001e-014 
rhumerus -30.9604 -28.058 -82.040499999999994 
rradius 18.7454 
rwrist 17.894400000000001 
rhand -7.3287300000000002 11.196999999999999 
rfingers 7.1250200000000001 
rthumb 18.554600000000001 -17.938099999999999 
71
root -7.6703850000000005 8.3179800000000004 -6.8854050000000004 182.39500000000001 9.1825799999999997 535.81299999999999 
lfemur 14.210000000000001 10.901 -16.363600000000002 
ltibia 13.8659 
lfoot -18.9358 -3.8639000000000001 
ltoes -23.428999999999998 
rfemur -43.922899999999998 -20.378799999999998 18.8992 
rtibia 31.754899999999999 
rfoot -11.5878 -0.83737700000000004 
rtoes -17.591699999999999 
lowerback -1.53938 -5.4380499999999996 -9.7590699999999995 
upperback 8.6306200000000004 -5.4694399999999996 -3.9140299999999999 
thorax 10.7865 -2.9045200000000002 0.61330300000000004 
lowerneck 7.3075000000000001 -13.297599999999999 -2.7675299999999998 
upperneck 5.6446300000000003 -18.000699999999998 16.230499999999999 
head 2.2431899999999998 -8.7337699999999998 5.1416199999999996 
lclavicle 6.0828100000000006e-014 -4.7708300000000003e-014 
lhumerus -28.419899999999998 -0.96597100000000002 78.892099999999999 
lradius 38.509500000000003 
lwrist -15.444100000000001 
lhand -21.4678 -5.63809 
lfingers 7.1250200000000001 
lthumb 4.9226200000000002 24.284700000000001 
rclavicle 6.0828100000000006e-014 -4.7708300000000003e-014 
rhumerus -31.145 -28.3492 -81.937899999999999 
rradius 18.877300000000002 
rwrist 17.937000000000001 
rhand -7.2054600000000004 11.3141 
rfingers 7.1250200000000001 
rthumb 18.673200000000001 -17.809699999999999 
